<?xml version="1.0" encoding="UTF-8"?>
<svg id="Layer_2" data-name="Layer 2" xmlns="http://www.w3.org/2000/svg" viewBox="0 0 1474.24 440.65">
  <defs>
    <style>
      .cls-1 {
        fill: #3085ff;
      }

      .cls-2 {
        fill: #ff953e;
      }

      .cls-3 {
        fill: #fe953e;
      }
    </style>
  </defs>
  <g id="Layer_1-2" data-name="Layer 1">
    <g>
      <g>
        <path class="cls-3" d="M583.79,330.25c-4,0-7.42-1.26-10.26-3.79-2.84-2.53-4.26-5.57-4.26-9.15V121.92c0-3.58,1.21-6.57,3.63-9,2.42-2.42,5.42-3.63,9-3.63h87.12c11.78,0,22.41,2.68,31.88,8.05,9.47,5.37,16.99,12.73,22.57,22.1,5.57,9.37,8.36,20.15,8.36,32.35,0,8.84-1.69,17.1-5.05,24.78-3.37,7.68-8,14.31-13.89,19.89-5.89,5.58-12.63,9.84-20.2,12.78l-6.94-5.05c7.15,1.69,13.57,4.68,19.25,9,5.68,4.32,10.31,9.78,13.89,16.41,3.58,6.63,5.47,14.36,5.68,23.2.42,7.79.95,14,1.58,18.62.63,4.63,1.58,8.26,2.84,10.89,1.26,2.63,3.05,4.68,5.37,6.15,2.94,1.89,4.89,4.42,5.84,7.58.95,3.16.37,6.21-1.74,9.15-1.26,1.89-3.05,3.21-5.37,3.95-2.32.74-4.63,1-6.94.79-2.32-.21-4.32-.84-6-1.89-3.37-1.89-6.63-4.68-9.78-8.36-3.16-3.68-5.79-9-7.89-15.94-2.11-6.94-3.16-16.41-3.16-28.41,0-6.73-1.05-12.31-3.16-16.73-2.11-4.42-4.95-7.99-8.52-10.73-3.58-2.73-7.58-4.63-11.99-5.68-4.42-1.05-8.95-1.58-13.57-1.58h-70.39l3.79-5.68v82.38c0,3.58-1.06,6.63-3.16,9.15-2.11,2.53-4.95,3.79-8.52,3.79ZM591.68,217.88h77.34c6.1-.42,11.84-2.53,17.2-6.31,5.37-3.79,9.79-9.1,13.26-15.94,3.47-6.84,5.21-14.57,5.21-23.2,0-11.15-3.53-20.41-10.57-27.78-7.05-7.36-15.94-11.05-26.67-11.05h-74.49l2.53-6v95.96l-3.79-5.68Z"/>
        <path class="cls-3" d="M855.26,333.41c-16.84,0-31.56-3.58-44.19-10.73-12.63-7.15-22.47-16.99-29.51-29.51-7.05-12.52-10.57-26.99-10.57-43.4,0-18.31,3.63-33.93,10.89-46.87,7.26-12.94,16.73-22.83,28.41-29.67,11.68-6.84,24.04-10.26,37.09-10.26,9.68,0,19.04,1.79,28.09,5.37,9.05,3.58,17.04,8.79,23.99,15.62,6.94,6.84,12.52,15.05,16.73,24.62,4.21,9.58,6.42,20.26,6.63,32.04,0,3.37-1.26,6.21-3.79,8.52-2.53,2.32-5.47,3.47-8.84,3.47h-124.68l-5.68-21.78h121.53l-5.05,4.42v-6.94c-.84-8.63-3.74-16.04-8.68-22.25-4.95-6.2-10.94-10.99-17.99-14.36-7.05-3.36-14.47-5.05-22.25-5.05-6.31,0-12.58,1.1-18.78,3.31-6.21,2.21-11.79,5.79-16.73,10.73-4.95,4.95-8.95,11.31-11.99,19.1-3.05,7.79-4.58,17.15-4.58,28.09,0,12.21,2.47,22.94,7.42,32.2,4.94,9.26,11.84,16.57,20.67,21.94,8.84,5.37,19.15,8.05,30.93,8.05,7.36,0,13.78-.95,19.25-2.84,5.47-1.89,10.2-4.26,14.2-7.1,4-2.84,7.36-5.73,10.1-8.68,2.73-1.89,5.37-2.84,7.89-2.84,3.16,0,5.73,1.05,7.73,3.16,2,2.11,3,4.63,3,7.58,0,3.58-1.69,6.74-5.05,9.47-5.89,6.53-13.89,12.26-23.99,17.2-10.1,4.94-20.83,7.42-32.2,7.42Z"/>
        <path class="cls-3" d="M1044.33,164.53c14.31,0,27.15,3.58,38.51,10.73,11.36,7.16,20.36,17.05,26.99,29.67s9.94,27.15,9.94,43.56-3.31,30.67-9.94,43.4c-6.63,12.73-15.57,22.73-26.83,29.99-11.26,7.26-23.94,10.89-38.04,10.89-7.79,0-15.1-1.21-21.94-3.63-6.84-2.42-13.05-5.57-18.62-9.47-5.58-3.89-10.26-8.31-14.05-13.26-3.79-4.94-6.53-9.83-8.21-14.68l6.94-4.42v93.12c0,3.58-1.16,6.63-3.47,9.15-2.32,2.53-5.37,3.79-9.15,3.79-3.58,0-6.58-1.21-9-3.63s-3.63-5.52-3.63-9.31v-201.7c0-3.58,1.21-6.57,3.63-9,2.42-2.42,5.42-3.63,9-3.63,3.79,0,6.84,1.21,9.15,3.63,2.31,2.42,3.47,5.42,3.47,9v28.09l-4.73-2.53c1.47-5.26,4.05-10.31,7.73-15.15,3.68-4.84,8.21-9.1,13.57-12.78,5.37-3.68,11.36-6.57,17.99-8.68,6.63-2.1,13.52-3.16,20.68-3.16ZM1041.49,187.89c-10.52,0-19.84,2.63-27.94,7.89-8.1,5.26-14.42,12.42-18.94,21.46-4.53,9.05-6.79,19.47-6.79,31.25s2.26,21.99,6.79,31.25c4.52,9.26,10.84,16.52,18.94,21.78,8.1,5.26,17.41,7.89,27.94,7.89s19.78-2.63,27.78-7.89c7.99-5.26,14.31-12.52,18.94-21.78,4.63-9.26,6.94-19.67,6.94-31.25s-2.32-22.2-6.94-31.25c-4.63-9.05-10.94-16.2-18.94-21.46-8-5.26-17.26-7.89-27.78-7.89Z"/>
        <path class="cls-3" d="M1188.58,317.31c0,3.58-1.26,6.63-3.79,9.15-2.53,2.53-5.58,3.79-9.15,3.79s-6.52-1.26-8.84-3.79c-2.32-2.53-3.47-5.57-3.47-9.15V109.29c0-3.58,1.21-6.57,3.63-9,2.42-2.42,5.42-3.63,9-3.63,3.79,0,6.84,1.21,9.15,3.63,2.31,2.42,3.47,5.42,3.47,9v208.01Z"/>
        <path class="cls-1" d="M1321.47,142.12l-74.18,180.55c-.84,2.53-2.32,4.53-4.42,6-2.11,1.48-4.32,2.21-6.63,2.21-4,0-6.94-1.05-8.84-3.16-1.89-2.1-2.84-4.63-2.84-7.58-.21-1.47,0-3.05.63-4.73l81.75-198.86c1.05-2.94,2.68-5.1,4.89-6.47,2.21-1.37,4.68-1.94,7.42-1.74,2.73,0,5.21.74,7.42,2.21,2.21,1.47,3.73,3.47,4.58,6l81.44,196.97c.63,1.69.95,3.37.95,5.05,0,3.79-1.26,6.79-3.79,9-2.53,2.21-5.37,3.31-8.52,3.31-2.53,0-4.84-.73-6.94-2.21-2.11-1.47-3.68-3.58-4.73-6.31l-75.12-180.55,6.94.32ZM1263.07,271.22l10.73-24.62h93.75l4.73,24.62h-109.22Z"/>
        <path class="cls-1" d="M1458.78,143.38c-5.26,0-9.15-1.05-11.68-3.16-2.53-2.1-3.79-5.37-3.79-9.79v-4.42c0-4.42,1.37-7.68,4.1-9.78,2.73-2.1,6.63-3.16,11.68-3.16s8.84,1.06,11.36,3.16c2.53,2.11,3.79,5.37,3.79,9.78v4.42c0,4.42-1.32,7.68-3.95,9.79-2.63,2.11-6.47,3.16-11.52,3.16ZM1471.4,317.31c0,3.58-1.21,6.63-3.63,9.15-2.42,2.53-5.42,3.79-9,3.79-3.79,0-6.84-1.26-9.15-3.79-2.32-2.53-3.47-5.57-3.47-9.15v-140.15c0-3.58,1.21-6.57,3.63-9,2.42-2.42,5.42-3.63,9-3.63s6.57,1.21,9,3.63c2.42,2.42,3.63,5.42,3.63,9v140.15Z"/>
      </g>
      <g>
        <path class="cls-2" d="M113.81,410.59l21.56-134.56-97.66-97.31c-2.2-2.19-3.84-4.77-4.89-7.56l-25.97,3.13c-6.55,1.03-9.16,9.06-4.47,13.74l99.47,99.11c1.84,1.84,2.69,4.45,2.28,7.02l-21.97,137.07c-1.09,6.83,6.31,11.8,12.22,8.2l21.95-14.97c-2.38-4.16-3.3-9.04-2.53-13.88Z"/>
        <path class="cls-2" d="M239.58,374.83l101.49,61.87c5.9,3.6,13.31-1.37,12.22-8.2l-4.89-20.59-81.55-49.71-27.28,16.63Z"/>
        <path class="cls-2" d="M222.05,49.6l-9.89-19.49c-3-5.92-11.45-5.92-14.45,0l-49.3,97.18,37.18-5.82,36.46-71.87Z"/>
        <path class="cls-1" d="M486.76,169.46c4.7-4.68,2.09-12.72-4.47-13.74l-138.72-21.71c-2.57-.4-4.79-2.02-5.97-4.34L274.08,4.44c-1.5-2.96-4.36-4.44-7.23-4.44s-5.72,1.48-7.23,4.44l-30.24,59.62-33.28,65.6c-1.18,2.32-3.4,3.94-5.97,4.34l-49.01,7.67-89.71,14.04c-6.55,1.03-9.16,9.06-4.47,13.74h0s99.46,99.11,99.46,99.11c1.84,1.84,2.69,4.45,2.28,7.02l-21.97,137.07c-.25,1.59-.04,3.08.5,4.38,1.25,3,4.26,5.02,7.51,5.02,1.4,0,2.84-.37,4.2-1.2l88.06-53.69,35.62-21.72c1.29-.79,2.76-1.18,4.22-1.18s2.92.39,4.22,1.18l73.08,44.55,50.61,30.85c1.36.83,2.8,1.2,4.2,1.2,4.66,0,8.85-4.15,8.01-9.4l-21.97-137.07c-.41-2.57.44-5.18,2.28-7.02l99.47-99.11ZM191.62,349.21c-5.84,4.25-13.9-.7-12.76-7.84l12.43-77.59c.41-2.57-.44-5.18-2.28-7.02l-55.67-55.46c-5.12-5.1-1.51-13.84,5.72-13.84h250.26c7.85,0,11.11,10.04,4.76,14.66l-202.46,147.1Z"/>
      </g>
    </g>
  </g>
</svg>